<svg xmlns="http://www.w3.org/2000/svg" xmlns:xlink="http://www.w3.org/1999/xlink" viewBox="0 0 24 30" version="1.1" x="0px" y="0px"><title>73 -Edit Map- (pin, map, navigation)</title><desc>Created with Sketch.</desc><g stroke="none" stroke-width="1" fill="none" fill-rule="evenodd" stroke-linejoin="round"><g transform="translate(-195.000000, -640.000000)" stroke="#000000" stroke-width="2"><g transform="translate(196.000000, 641.000000)"><path d="M21.7794,14.3014 L20.6984,13.2204 C20.4044,12.9264 19.9274,12.9264 19.6334,13.2204 L13.8674,18.9874 L13.0004,22.0004 L16.0124,21.1324 L21.7794,15.3664 C22.0734,15.0724 22.0734,14.5954 21.7794,14.3014 L21.7794,14.3014 Z"/><polyline stroke-linecap="round" points="8 22 0 22 0 0 22 0 22 9"/><polyline stroke-linecap="round" points="19.5 0 9 9 9 0 5 0 5 6 0 6 0 10 5 10 5 16 0 22"/></g></g></g><text x="0" y="39" fill="#000000" font-size="5px" font-weight="bold" font-family="'Helvetica Neue', Helvetica, Arial-Unicode, Arial, Sans-serif">Created by Oliviu Stoian</text><text x="0" y="44" fill="#000000" font-size="5px" font-weight="bold" font-family="'Helvetica Neue', Helvetica, Arial-Unicode, Arial, Sans-serif">from the Noun Project</text></svg>