<svg xmlns="http://www.w3.org/2000/svg" xmlns:xlink="http://www.w3.org/1999/xlink" version="1.1" x="0px" y="0px" viewBox="0 0 91 113.75" style="enable-background:new 0 0 91 91;" xml:space="preserve"><g><path d="M80.2,71.6V31.2c0-1.9-1.5-3.5-3.5-3.5h-13c-1.2-8.7-8.6-15.4-17.6-15.4c-9,0-16.4,6.7-17.6,15.4H15.2   c-1.9,0-3.5,1.6-3.5,3.5v40.5H1.9v4.2l0.5,0.4c0.3,0.3,3.4,2.5,5.9,2.5h75.4c2.5,0,5.5-2.2,5.9-2.5l0.5-0.4v-4.2H80.2z M45.4,54.3   c0.2,0.2,0.5,0.3,0.8,0.3s0.6-0.1,0.8-0.3c0.6-0.5,12.7-10.9,16.1-20h10v32.8H18.8V34.4h10.4C32.6,43.4,44.8,53.8,45.4,54.3z    M46.1,14.7c8.5,0,15.4,6.9,15.4,15.4c0,7.4-12.2,18.8-15.4,21.7c-3.2-2.9-15.4-14.3-15.4-21.7C30.8,21.6,37.7,14.7,46.1,14.7z    M14.2,31.2c0-0.6,0.5-1.1,1.1-1.1h13.1c0,0.6,0.1,1.2,0.2,1.8H16.4v37.6h59V32H63.7c0.1-0.6,0.2-1.2,0.2-1.8h12.8   c0.6,0,1.1,0.5,1.1,1.1v40.5H51.8l-0.3,0.9c-0.1,0.2-0.1,0.3-1.5,0.3c0,0,0,0,0,0h-8.2c-1.3,0-1.4-0.1-1.5-0.3l-0.3-0.9H14.2V31.2z    M87.6,74.6c-1.1,0.7-2.8,1.6-3.9,1.6H8.3c-1.1,0-2.8-0.9-3.9-1.6V74h34.1c0.8,1.1,2.3,1.2,3.4,1.1h8.2c1.1,0,2.5,0,3.4-1.1h34.1   V74.6z"/><path d="M55.6,30.1c0-5.2-4.2-9.4-9.4-9.4c-5.2,0-9.4,4.2-9.4,9.4c0,5.2,4.2,9.4,9.4,9.4C51.3,39.5,55.6,35.3,55.6,30.1z    M39.1,30.1c0-3.9,3.2-7,7-7c3.9,0,7,3.2,7,7c0,3.9-3.2,7-7,7C42.3,37.1,39.1,34,39.1,30.1z"/><path d="M46.1,60.8c3.8,0,6.9-3.1,6.9-6.9h-2.4c0,2.5-2,4.5-4.5,4.5c-2.5,0-4.5-2-4.5-4.5h-2.4C39.2,57.7,42.3,60.8,46.1,60.8z"/></g><text x="0" y="106" fill="#000000" font-size="5px" font-weight="bold" font-family="'Helvetica Neue', Helvetica, Arial-Unicode, Arial, Sans-serif">Created by Korawan.M</text><text x="0" y="111" fill="#000000" font-size="5px" font-weight="bold" font-family="'Helvetica Neue', Helvetica, Arial-Unicode, Arial, Sans-serif">from the Noun Project</text></svg>