<svg xmlns="http://www.w3.org/2000/svg" xmlns:xlink="http://www.w3.org/1999/xlink" viewBox="0 0 24 30" version="1.1" x="0px" y="0px"><title>77 -Upload Map- (pin, map, navigation)</title><desc>Created with Sketch.</desc><g stroke="none" stroke-width="1" fill="none" fill-rule="evenodd" stroke-linecap="round" stroke-linejoin="round"><g transform="translate(-387.000000, -640.000000)" stroke="#000000" stroke-width="2"><g transform="translate(388.000000, 641.000000)"><path d="M16,19 L16,13"/><path d="M14,15 L16,13"/><path d="M16,13 L18,15"/><polyline points="7 22 0 22 0 0 22 0 22 7"/><polyline points="19.5 0 9 9 9 0 5 0 5 6 0 6 0 10 5 10 5 16 0 22"/><path d="M22,16 C22,19.314 19.314,22 16,22 C12.686,22 10,19.314 10,16 C10,12.686 12.686,10 16,10 C19.314,10 22,12.686 22,16 L22,16 Z"/></g></g></g><text x="0" y="39" fill="#000000" font-size="5px" font-weight="bold" font-family="'Helvetica Neue', Helvetica, Arial-Unicode, Arial, Sans-serif">Created by Oliviu Stoian</text><text x="0" y="44" fill="#000000" font-size="5px" font-weight="bold" font-family="'Helvetica Neue', Helvetica, Arial-Unicode, Arial, Sans-serif">from the Noun Project</text></svg>